<mxfile host="Electron" agent="Mozilla/5.0 (Windows NT 10.0; Win64; x64) AppleWebKit/537.36 (KHTML, like Gecko) draw.io/24.7.8 Chrome/128.0.6613.36 Electron/32.0.1 Safari/537.36" version="24.7.8">
  <diagram name="Page-1" id="wzWaHLDUTRp2b82V1Pae">
    <mxGraphModel dx="2603" dy="836" grid="1" gridSize="10" guides="1" tooltips="1" connect="1" arrows="1" fold="1" page="1" pageScale="1" pageWidth="1169" pageHeight="827" math="0" shadow="0">
      <root>
        <mxCell id="0" />
        <mxCell id="1" parent="0" />
        <mxCell id="sY5elDIqDR5LSqiKP0fA-1" value="organization" style="rounded=0;whiteSpace=wrap;html=1;dashed=1;" parent="1" vertex="1">
          <mxGeometry x="1140" y="230" width="120" height="40" as="geometry" />
        </mxCell>
        <mxCell id="sY5elDIqDR5LSqiKP0fA-2" value="resource" style="rounded=0;whiteSpace=wrap;html=1;dashed=1;" parent="1" vertex="1">
          <mxGeometry x="1140" y="290" width="120" height="40" as="geometry" />
        </mxCell>
        <mxCell id="sY5elDIqDR5LSqiKP0fA-3" value="aggregate" style="rounded=1;whiteSpace=wrap;html=1;" parent="1" vertex="1">
          <mxGeometry x="100" y="430" width="120" height="30" as="geometry" />
        </mxCell>
        <mxCell id="sY5elDIqDR5LSqiKP0fA-4" value="ns" style="rounded=0;whiteSpace=wrap;html=1;" parent="1" vertex="1">
          <mxGeometry x="100" y="550" width="120" height="40" as="geometry" />
        </mxCell>
        <mxCell id="sY5elDIqDR5LSqiKP0fA-5" value="command" style="rounded=1;whiteSpace=wrap;html=1;" parent="1" vertex="1">
          <mxGeometry x="280" y="430" width="120" height="30" as="geometry" />
        </mxCell>
        <mxCell id="sY5elDIqDR5LSqiKP0fA-6" value="consumer" style="rounded=1;whiteSpace=wrap;html=1;" parent="1" vertex="1">
          <mxGeometry x="450" y="430" width="120" height="30" as="geometry" />
        </mxCell>
        <mxCell id="sY5elDIqDR5LSqiKP0fA-7" value="controller" style="rounded=1;whiteSpace=wrap;html=1;" parent="1" vertex="1">
          <mxGeometry x="610" y="430" width="120" height="30" as="geometry" />
        </mxCell>
        <mxCell id="sY5elDIqDR5LSqiKP0fA-8" value="dataTransferObject" style="rounded=1;whiteSpace=wrap;html=1;" parent="1" vertex="1">
          <mxGeometry x="760" y="430" width="120" height="30" as="geometry" />
        </mxCell>
        <mxCell id="sY5elDIqDR5LSqiKP0fA-10" value="domainEvent" style="rounded=1;whiteSpace=wrap;html=1;" parent="1" vertex="1">
          <mxGeometry x="910" y="430" width="120" height="30" as="geometry" />
        </mxCell>
        <mxCell id="sY5elDIqDR5LSqiKP0fA-11" value="entity" style="rounded=1;whiteSpace=wrap;html=1;" parent="1" vertex="1">
          <mxGeometry x="1060" y="430" width="120" height="30" as="geometry" />
        </mxCell>
        <mxCell id="sY5elDIqDR5LSqiKP0fA-12" value="errors" style="rounded=1;whiteSpace=wrap;html=1;" parent="1" vertex="1">
          <mxGeometry x="1210" y="430" width="120" height="30" as="geometry" />
        </mxCell>
        <mxCell id="sY5elDIqDR5LSqiKP0fA-13" value="microservice" style="rounded=1;whiteSpace=wrap;html=1;" parent="1" vertex="1">
          <mxGeometry x="1370" y="430" width="120" height="30" as="geometry" />
        </mxCell>
        <mxCell id="sY5elDIqDR5LSqiKP0fA-15" value="query" style="rounded=1;whiteSpace=wrap;html=1;" parent="1" vertex="1">
          <mxGeometry x="1530" y="430" width="120" height="30" as="geometry" />
        </mxCell>
        <mxCell id="sY5elDIqDR5LSqiKP0fA-16" value="repository" style="rounded=1;whiteSpace=wrap;html=1;" parent="1" vertex="1">
          <mxGeometry x="1693.5" y="430" width="120" height="30" as="geometry" />
        </mxCell>
        <mxCell id="sY5elDIqDR5LSqiKP0fA-17" value="useCase" style="rounded=1;whiteSpace=wrap;html=1;" parent="1" vertex="1">
          <mxGeometry x="1850" y="430" width="120" height="30" as="geometry" />
        </mxCell>
        <mxCell id="sY5elDIqDR5LSqiKP0fA-18" value="value object" style="rounded=1;whiteSpace=wrap;html=1;" parent="1" vertex="1">
          <mxGeometry x="2010" y="430" width="120" height="30" as="geometry" />
        </mxCell>
        <mxCell id="sY5elDIqDR5LSqiKP0fA-23" value="name" style="rounded=0;whiteSpace=wrap;html=1;dashed=1;" parent="1" vertex="1">
          <mxGeometry x="100" y="610" width="120" height="40" as="geometry" />
        </mxCell>
        <mxCell id="sY5elDIqDR5LSqiKP0fA-24" value="ns" style="rounded=0;whiteSpace=wrap;html=1;" parent="1" vertex="1">
          <mxGeometry x="280" y="550" width="120" height="40" as="geometry" />
        </mxCell>
        <mxCell id="sY5elDIqDR5LSqiKP0fA-25" value="name" style="rounded=0;whiteSpace=wrap;html=1;dashed=1;" parent="1" vertex="1">
          <mxGeometry x="280" y="610" width="120" height="40" as="geometry" />
        </mxCell>
        <mxCell id="sY5elDIqDR5LSqiKP0fA-26" value="useCase" style="rounded=0;whiteSpace=wrap;html=1;dashed=1;" parent="1" vertex="1">
          <mxGeometry x="280" y="670" width="120" height="40" as="geometry" />
        </mxCell>
        <mxCell id="sY5elDIqDR5LSqiKP0fA-27" value="ns" style="rounded=0;whiteSpace=wrap;html=1;" parent="1" vertex="1">
          <mxGeometry x="450" y="550" width="120" height="40" as="geometry" />
        </mxCell>
        <mxCell id="sY5elDIqDR5LSqiKP0fA-28" value="name" style="rounded=0;whiteSpace=wrap;html=1;dashed=1;" parent="1" vertex="1">
          <mxGeometry x="450" y="610" width="120" height="40" as="geometry" />
        </mxCell>
        <mxCell id="sY5elDIqDR5LSqiKP0fA-29" value="action" style="rounded=0;whiteSpace=wrap;html=1;dashed=1;" parent="1" vertex="1">
          <mxGeometry x="450" y="670" width="120" height="40" as="geometry" />
        </mxCell>
        <mxCell id="sY5elDIqDR5LSqiKP0fA-30" value="entity" style="rounded=0;whiteSpace=wrap;html=1;dashed=1;" parent="1" vertex="1">
          <mxGeometry x="450" y="730" width="120" height="40" as="geometry" />
        </mxCell>
        <mxCell id="sY5elDIqDR5LSqiKP0fA-31" value="ns" style="rounded=0;whiteSpace=wrap;html=1;" parent="1" vertex="1">
          <mxGeometry x="610" y="550" width="120" height="40" as="geometry" />
        </mxCell>
        <mxCell id="sY5elDIqDR5LSqiKP0fA-32" value="name" style="rounded=0;whiteSpace=wrap;html=1;dashed=1;" parent="1" vertex="1">
          <mxGeometry x="610" y="610" width="120" height="40" as="geometry" />
        </mxCell>
        <mxCell id="sY5elDIqDR5LSqiKP0fA-35" value="ns" style="rounded=0;whiteSpace=wrap;html=1;" parent="1" vertex="1">
          <mxGeometry x="760" y="550" width="120" height="40" as="geometry" />
        </mxCell>
        <mxCell id="sY5elDIqDR5LSqiKP0fA-36" value="name" style="rounded=0;whiteSpace=wrap;html=1;dashed=1;" parent="1" vertex="1">
          <mxGeometry x="760" y="610" width="120" height="40" as="geometry" />
        </mxCell>
        <mxCell id="sY5elDIqDR5LSqiKP0fA-37" value="ns" style="rounded=0;whiteSpace=wrap;html=1;" parent="1" vertex="1">
          <mxGeometry x="910" y="550" width="120" height="40" as="geometry" />
        </mxCell>
        <mxCell id="sY5elDIqDR5LSqiKP0fA-38" value="name" style="rounded=0;whiteSpace=wrap;html=1;dashed=1;" parent="1" vertex="1">
          <mxGeometry x="910" y="610" width="120" height="40" as="geometry" />
        </mxCell>
        <mxCell id="sY5elDIqDR5LSqiKP0fA-39" value="entity" style="rounded=0;whiteSpace=wrap;html=1;dashed=1;" parent="1" vertex="1">
          <mxGeometry x="910" y="670" width="120" height="40" as="geometry" />
        </mxCell>
        <mxCell id="sY5elDIqDR5LSqiKP0fA-40" value="verb" style="rounded=0;whiteSpace=wrap;html=1;dashed=1;fillColor=#f8cecc;strokeColor=#b85450;" parent="1" vertex="1">
          <mxGeometry x="910" y="730" width="120" height="40" as="geometry" />
        </mxCell>
        <mxCell id="sY5elDIqDR5LSqiKP0fA-41" value="ns" style="rounded=0;whiteSpace=wrap;html=1;" parent="1" vertex="1">
          <mxGeometry x="1060" y="550" width="120" height="40" as="geometry" />
        </mxCell>
        <mxCell id="sY5elDIqDR5LSqiKP0fA-42" value="name" style="rounded=0;whiteSpace=wrap;html=1;dashed=1;" parent="1" vertex="1">
          <mxGeometry x="1060" y="610" width="120" height="40" as="geometry" />
        </mxCell>
        <mxCell id="sY5elDIqDR5LSqiKP0fA-43" value="ns" style="rounded=0;whiteSpace=wrap;html=1;" parent="1" vertex="1">
          <mxGeometry x="1210" y="550" width="120" height="40" as="geometry" />
        </mxCell>
        <mxCell id="sY5elDIqDR5LSqiKP0fA-44" value="code" style="rounded=0;whiteSpace=wrap;html=1;dashed=1;" parent="1" vertex="1">
          <mxGeometry x="1210" y="610" width="120" height="40" as="geometry" />
        </mxCell>
        <mxCell id="sY5elDIqDR5LSqiKP0fA-45" value="ns" style="rounded=0;whiteSpace=wrap;html=1;" parent="1" vertex="1">
          <mxGeometry x="1370" y="550" width="120" height="40" as="geometry" />
        </mxCell>
        <mxCell id="sY5elDIqDR5LSqiKP0fA-46" value="enableExample" style="rounded=0;whiteSpace=wrap;html=1;dashed=1;" parent="1" vertex="1">
          <mxGeometry x="1370" y="610" width="120" height="40" as="geometry" />
        </mxCell>
        <mxCell id="sY5elDIqDR5LSqiKP0fA-48" value="ns" style="rounded=0;whiteSpace=wrap;html=1;" parent="1" vertex="1">
          <mxGeometry x="1530" y="550" width="120" height="40" as="geometry" />
        </mxCell>
        <mxCell id="sY5elDIqDR5LSqiKP0fA-49" value="useCase" style="rounded=0;whiteSpace=wrap;html=1;dashed=1;" parent="1" vertex="1">
          <mxGeometry x="1530" y="670" width="120" height="40" as="geometry" />
        </mxCell>
        <mxCell id="sY5elDIqDR5LSqiKP0fA-50" value="ns" style="rounded=0;whiteSpace=wrap;html=1;" parent="1" vertex="1">
          <mxGeometry x="1694" y="550" width="120" height="40" as="geometry" />
        </mxCell>
        <mxCell id="sY5elDIqDR5LSqiKP0fA-51" value="isInterface" style="rounded=0;whiteSpace=wrap;html=1;dashed=1;" parent="1" vertex="1">
          <mxGeometry x="1694" y="670" width="120" height="40" as="geometry" />
        </mxCell>
        <mxCell id="sY5elDIqDR5LSqiKP0fA-53" value="name" style="rounded=0;whiteSpace=wrap;html=1;dashed=1;" parent="1" vertex="1">
          <mxGeometry x="1694" y="610" width="120" height="40" as="geometry" />
        </mxCell>
        <mxCell id="sY5elDIqDR5LSqiKP0fA-54" value="name" style="rounded=0;whiteSpace=wrap;html=1;dashed=1;" parent="1" vertex="1">
          <mxGeometry x="1530" y="610" width="120" height="40" as="geometry" />
        </mxCell>
        <mxCell id="sY5elDIqDR5LSqiKP0fA-56" value="Rolando" style="text;html=1;align=center;verticalAlign=middle;resizable=0;points=[];autosize=1;strokeColor=none;fillColor=none;" parent="1" vertex="1">
          <mxGeometry x="1165" y="140" width="70" height="30" as="geometry" />
        </mxCell>
        <mxCell id="sY5elDIqDR5LSqiKP0fA-58" value="15 mil empleados - turismo de lujo" style="text;html=1;align=center;verticalAlign=middle;resizable=0;points=[];autosize=1;strokeColor=none;fillColor=none;" parent="1" vertex="1">
          <mxGeometry x="480" y="140" width="210" height="30" as="geometry" />
        </mxCell>
        <mxCell id="sY5elDIqDR5LSqiKP0fA-59" value="23.200.000" style="text;html=1;align=center;verticalAlign=middle;resizable=0;points=[];autosize=1;strokeColor=none;fillColor=none;" parent="1" vertex="1">
          <mxGeometry x="1550" y="140" width="80" height="30" as="geometry" />
        </mxCell>
        <mxCell id="sY5elDIqDR5LSqiKP0fA-60" value="bono 3800 dolares" style="text;html=1;align=center;verticalAlign=middle;resizable=0;points=[];autosize=1;strokeColor=none;fillColor=none;" parent="1" vertex="1">
          <mxGeometry x="1530" y="230" width="120" height="30" as="geometry" />
        </mxCell>
        <mxCell id="sY5elDIqDR5LSqiKP0fA-61" value="vacaciones 25%" style="text;html=1;align=center;verticalAlign=middle;resizable=0;points=[];autosize=1;strokeColor=none;fillColor=none;" parent="1" vertex="1">
          <mxGeometry x="1535" y="190" width="110" height="30" as="geometry" />
        </mxCell>
        <mxCell id="sY5elDIqDR5LSqiKP0fA-62" value="70200" style="text;html=1;align=center;verticalAlign=middle;resizable=0;points=[];autosize=1;strokeColor=none;fillColor=none;" parent="1" vertex="1">
          <mxGeometry x="1780" y="140" width="60" height="30" as="geometry" />
        </mxCell>
        <mxCell id="sY5elDIqDR5LSqiKP0fA-63" value="mi planilla&amp;nbsp;" style="text;html=1;align=center;verticalAlign=middle;resizable=0;points=[];autosize=1;strokeColor=none;fillColor=none;" parent="1" vertex="1">
          <mxGeometry x="1714" y="20" width="80" height="30" as="geometry" />
        </mxCell>
        <mxCell id="sY5elDIqDR5LSqiKP0fA-64" value="mitad retenciones, salud, pension" style="text;html=1;align=center;verticalAlign=middle;resizable=0;points=[];autosize=1;strokeColor=none;fillColor=none;" parent="1" vertex="1">
          <mxGeometry x="870" y="90" width="200" height="30" as="geometry" />
        </mxCell>
        <mxCell id="sY5elDIqDR5LSqiKP0fA-65" value="25 mil pesos" style="text;html=1;align=center;verticalAlign=middle;resizable=0;points=[];autosize=1;strokeColor=none;fillColor=none;" parent="1" vertex="1">
          <mxGeometry x="925" y="20" width="90" height="30" as="geometry" />
        </mxCell>
        <mxCell id="sY5elDIqDR5LSqiKP0fA-66" value="yenny carreno" style="text;html=1;align=center;verticalAlign=middle;resizable=0;points=[];autosize=1;strokeColor=none;fillColor=none;" parent="1" vertex="1">
          <mxGeometry x="1130" y="28" width="100" height="30" as="geometry" />
        </mxCell>
        <mxCell id="wtg2LbB6esUIouC4Uuoj-15" style="edgeStyle=orthogonalEdgeStyle;rounded=0;orthogonalLoop=1;jettySize=auto;html=1;exitX=1;exitY=0.5;exitDx=0;exitDy=0;entryX=0;entryY=0.5;entryDx=0;entryDy=0;" edge="1" parent="1" source="wtg2LbB6esUIouC4Uuoj-1" target="wtg2LbB6esUIouC4Uuoj-6">
          <mxGeometry relative="1" as="geometry">
            <Array as="points">
              <mxPoint x="840" y="1305" />
              <mxPoint x="840" y="1345" />
            </Array>
          </mxGeometry>
        </mxCell>
        <mxCell id="wtg2LbB6esUIouC4Uuoj-18" style="edgeStyle=orthogonalEdgeStyle;rounded=0;orthogonalLoop=1;jettySize=auto;html=1;exitX=1;exitY=0.5;exitDx=0;exitDy=0;entryX=0;entryY=0.5;entryDx=0;entryDy=0;" edge="1" parent="1" source="wtg2LbB6esUIouC4Uuoj-1" target="wtg2LbB6esUIouC4Uuoj-7">
          <mxGeometry relative="1" as="geometry">
            <Array as="points">
              <mxPoint x="840" y="1305" />
              <mxPoint x="840" y="1405" />
            </Array>
          </mxGeometry>
        </mxCell>
        <mxCell id="wtg2LbB6esUIouC4Uuoj-19" style="edgeStyle=orthogonalEdgeStyle;rounded=0;orthogonalLoop=1;jettySize=auto;html=1;exitX=1;exitY=0.5;exitDx=0;exitDy=0;entryX=0;entryY=0.5;entryDx=0;entryDy=0;" edge="1" parent="1" source="wtg2LbB6esUIouC4Uuoj-1" target="wtg2LbB6esUIouC4Uuoj-13">
          <mxGeometry relative="1" as="geometry">
            <Array as="points">
              <mxPoint x="840" y="1305" />
              <mxPoint x="840" y="1285" />
            </Array>
          </mxGeometry>
        </mxCell>
        <mxCell id="wtg2LbB6esUIouC4Uuoj-21" style="edgeStyle=orthogonalEdgeStyle;rounded=0;orthogonalLoop=1;jettySize=auto;html=1;exitX=1;exitY=0.5;exitDx=0;exitDy=0;entryX=0;entryY=0.5;entryDx=0;entryDy=0;" edge="1" parent="1" source="wtg2LbB6esUIouC4Uuoj-1" target="wtg2LbB6esUIouC4Uuoj-20">
          <mxGeometry relative="1" as="geometry">
            <Array as="points">
              <mxPoint x="840" y="1305" />
              <mxPoint x="840" y="1226" />
            </Array>
          </mxGeometry>
        </mxCell>
        <mxCell id="wtg2LbB6esUIouC4Uuoj-1" value="aggregate" style="rounded=1;whiteSpace=wrap;html=1;dashed=1;dashPattern=8 8;" vertex="1" parent="1">
          <mxGeometry x="690" y="1290" width="120" height="30" as="geometry" />
        </mxCell>
        <mxCell id="wtg2LbB6esUIouC4Uuoj-36" style="edgeStyle=orthogonalEdgeStyle;rounded=0;orthogonalLoop=1;jettySize=auto;html=1;exitX=1;exitY=0.5;exitDx=0;exitDy=0;" edge="1" parent="1" source="wtg2LbB6esUIouC4Uuoj-2" target="wtg2LbB6esUIouC4Uuoj-12">
          <mxGeometry relative="1" as="geometry" />
        </mxCell>
        <mxCell id="wtg2LbB6esUIouC4Uuoj-2" value="command" style="rounded=1;whiteSpace=wrap;html=1;dashed=1;dashPattern=1 1;" vertex="1" parent="1">
          <mxGeometry x="80" y="1290" width="120" height="30" as="geometry" />
        </mxCell>
        <mxCell id="wtg2LbB6esUIouC4Uuoj-27" style="edgeStyle=orthogonalEdgeStyle;rounded=0;orthogonalLoop=1;jettySize=auto;html=1;entryX=0;entryY=0.5;entryDx=0;entryDy=0;" edge="1" parent="1" source="wtg2LbB6esUIouC4Uuoj-3" target="wtg2LbB6esUIouC4Uuoj-2">
          <mxGeometry relative="1" as="geometry" />
        </mxCell>
        <mxCell id="wtg2LbB6esUIouC4Uuoj-3" value="consumer" style="rounded=1;whiteSpace=wrap;html=1;" vertex="1" parent="1">
          <mxGeometry x="-200" y="1400" width="120" height="30" as="geometry" />
        </mxCell>
        <mxCell id="wtg2LbB6esUIouC4Uuoj-26" style="edgeStyle=orthogonalEdgeStyle;rounded=0;orthogonalLoop=1;jettySize=auto;html=1;entryX=0;entryY=0.5;entryDx=0;entryDy=0;" edge="1" parent="1" source="wtg2LbB6esUIouC4Uuoj-4" target="wtg2LbB6esUIouC4Uuoj-2">
          <mxGeometry relative="1" as="geometry" />
        </mxCell>
        <mxCell id="wtg2LbB6esUIouC4Uuoj-28" style="edgeStyle=orthogonalEdgeStyle;rounded=0;orthogonalLoop=1;jettySize=auto;html=1;exitX=1;exitY=0.5;exitDx=0;exitDy=0;entryX=0;entryY=0.5;entryDx=0;entryDy=0;" edge="1" parent="1" source="wtg2LbB6esUIouC4Uuoj-4" target="wtg2LbB6esUIouC4Uuoj-10">
          <mxGeometry relative="1" as="geometry" />
        </mxCell>
        <mxCell id="wtg2LbB6esUIouC4Uuoj-4" value="controller" style="rounded=1;whiteSpace=wrap;html=1;" vertex="1" parent="1">
          <mxGeometry x="-200" y="1290" width="120" height="30" as="geometry" />
        </mxCell>
        <mxCell id="wtg2LbB6esUIouC4Uuoj-5" value="dataTransferObject" style="rounded=1;whiteSpace=wrap;html=1;dashed=1;dashPattern=8 8;" vertex="1" parent="1">
          <mxGeometry x="690" y="1450" width="120" height="30" as="geometry" />
        </mxCell>
        <mxCell id="wtg2LbB6esUIouC4Uuoj-6" value="domainEvent" style="rounded=1;whiteSpace=wrap;html=1;dashed=1;dashPattern=8 8;" vertex="1" parent="1">
          <mxGeometry x="940" y="1330" width="120" height="30" as="geometry" />
        </mxCell>
        <mxCell id="wtg2LbB6esUIouC4Uuoj-7" value="entity" style="rounded=1;whiteSpace=wrap;html=1;dashed=1;dashPattern=8 8;" vertex="1" parent="1">
          <mxGeometry x="940" y="1390" width="120" height="30" as="geometry" />
        </mxCell>
        <mxCell id="wtg2LbB6esUIouC4Uuoj-8" value="errors" style="rounded=1;whiteSpace=wrap;html=1;" vertex="1" parent="1">
          <mxGeometry x="240" y="1050" width="120" height="30" as="geometry" />
        </mxCell>
        <mxCell id="wtg2LbB6esUIouC4Uuoj-9" value="microservice" style="rounded=1;whiteSpace=wrap;html=1;" vertex="1" parent="1">
          <mxGeometry x="390" y="1050" width="120" height="30" as="geometry" />
        </mxCell>
        <mxCell id="wtg2LbB6esUIouC4Uuoj-39" style="edgeStyle=orthogonalEdgeStyle;rounded=0;orthogonalLoop=1;jettySize=auto;html=1;exitX=1;exitY=0.5;exitDx=0;exitDy=0;entryX=0;entryY=0.5;entryDx=0;entryDy=0;" edge="1" parent="1" source="wtg2LbB6esUIouC4Uuoj-10" target="wtg2LbB6esUIouC4Uuoj-40">
          <mxGeometry relative="1" as="geometry">
            <mxPoint x="250" y="1205" as="targetPoint" />
            <Array as="points">
              <mxPoint x="230" y="1205" />
              <mxPoint x="230" y="1206" />
            </Array>
          </mxGeometry>
        </mxCell>
        <mxCell id="wtg2LbB6esUIouC4Uuoj-10" value="query" style="rounded=1;whiteSpace=wrap;html=1;dashed=1;dashPattern=1 1;" vertex="1" parent="1">
          <mxGeometry x="80" y="1190" width="120" height="30" as="geometry" />
        </mxCell>
        <mxCell id="wtg2LbB6esUIouC4Uuoj-22" style="edgeStyle=orthogonalEdgeStyle;rounded=0;orthogonalLoop=1;jettySize=auto;html=1;entryX=0;entryY=0.5;entryDx=0;entryDy=0;" edge="1" parent="1" source="wtg2LbB6esUIouC4Uuoj-11" target="wtg2LbB6esUIouC4Uuoj-1">
          <mxGeometry relative="1" as="geometry" />
        </mxCell>
        <mxCell id="wtg2LbB6esUIouC4Uuoj-43" style="edgeStyle=orthogonalEdgeStyle;rounded=0;orthogonalLoop=1;jettySize=auto;html=1;exitX=0.5;exitY=1;exitDx=0;exitDy=0;entryX=0.5;entryY=0;entryDx=0;entryDy=0;" edge="1" parent="1" source="wtg2LbB6esUIouC4Uuoj-11" target="wtg2LbB6esUIouC4Uuoj-5">
          <mxGeometry relative="1" as="geometry" />
        </mxCell>
        <mxCell id="wtg2LbB6esUIouC4Uuoj-11" value="repository" style="rounded=1;whiteSpace=wrap;html=1;dashed=1;dashPattern=8 8;" vertex="1" parent="1">
          <mxGeometry x="520" y="1290" width="120" height="30" as="geometry" />
        </mxCell>
        <mxCell id="wtg2LbB6esUIouC4Uuoj-34" style="edgeStyle=orthogonalEdgeStyle;rounded=0;orthogonalLoop=1;jettySize=auto;html=1;exitX=1;exitY=0.5;exitDx=0;exitDy=0;" edge="1" parent="1" source="wtg2LbB6esUIouC4Uuoj-12" target="wtg2LbB6esUIouC4Uuoj-11">
          <mxGeometry relative="1" as="geometry" />
        </mxCell>
        <mxCell id="wtg2LbB6esUIouC4Uuoj-44" style="edgeStyle=orthogonalEdgeStyle;rounded=0;orthogonalLoop=1;jettySize=auto;html=1;exitX=0.5;exitY=1;exitDx=0;exitDy=0;entryX=0;entryY=0.5;entryDx=0;entryDy=0;" edge="1" parent="1" source="wtg2LbB6esUIouC4Uuoj-12" target="wtg2LbB6esUIouC4Uuoj-5">
          <mxGeometry relative="1" as="geometry" />
        </mxCell>
        <mxCell id="wtg2LbB6esUIouC4Uuoj-12" value="useCase" style="rounded=1;whiteSpace=wrap;html=1;dashed=1;dashPattern=1 1;" vertex="1" parent="1">
          <mxGeometry x="270" y="1290" width="120" height="30" as="geometry" />
        </mxCell>
        <mxCell id="wtg2LbB6esUIouC4Uuoj-13" value="value object" style="rounded=1;whiteSpace=wrap;html=1;dashed=1;dashPattern=8 8;" vertex="1" parent="1">
          <mxGeometry x="940" y="1270" width="120" height="30" as="geometry" />
        </mxCell>
        <mxCell id="wtg2LbB6esUIouC4Uuoj-20" value="errors" style="rounded=1;whiteSpace=wrap;html=1;dashed=1;dashPattern=8 8;" vertex="1" parent="1">
          <mxGeometry x="940" y="1211" width="120" height="30" as="geometry" />
        </mxCell>
        <mxCell id="wtg2LbB6esUIouC4Uuoj-42" style="edgeStyle=orthogonalEdgeStyle;rounded=0;orthogonalLoop=1;jettySize=auto;html=1;exitX=1;exitY=0.5;exitDx=0;exitDy=0;" edge="1" parent="1" source="wtg2LbB6esUIouC4Uuoj-40" target="wtg2LbB6esUIouC4Uuoj-11">
          <mxGeometry relative="1" as="geometry" />
        </mxCell>
        <mxCell id="wtg2LbB6esUIouC4Uuoj-40" value="useCase" style="rounded=1;whiteSpace=wrap;html=1;dashed=1;dashPattern=1 1;" vertex="1" parent="1">
          <mxGeometry x="270" y="1190" width="120" height="30" as="geometry" />
        </mxCell>
        <mxCell id="wtg2LbB6esUIouC4Uuoj-45" value="What is your organization ?" style="text;html=1;align=center;verticalAlign=middle;resizable=0;points=[];autosize=1;strokeColor=none;fillColor=none;" vertex="1" parent="1">
          <mxGeometry x="275" y="1550" width="170" height="30" as="geometry" />
        </mxCell>
        <mxCell id="wtg2LbB6esUIouC4Uuoj-46" value="What is your name of the microservice ?" style="text;html=1;align=center;verticalAlign=middle;resizable=0;points=[];autosize=1;strokeColor=none;fillColor=none;" vertex="1" parent="1">
          <mxGeometry x="275" y="1580" width="240" height="30" as="geometry" />
        </mxCell>
        <mxCell id="wtg2LbB6esUIouC4Uuoj-47" value="Do you whant execute the wizard to create resource clean?" style="text;html=1;align=center;verticalAlign=middle;resizable=0;points=[];autosize=1;strokeColor=none;fillColor=none;" vertex="1" parent="1">
          <mxGeometry x="275" y="1610" width="340" height="30" as="geometry" />
        </mxCell>
        <mxCell id="wtg2LbB6esUIouC4Uuoj-48" value="What is the name aggregate that your want create ?" style="text;html=1;align=center;verticalAlign=middle;resizable=0;points=[];autosize=1;strokeColor=none;fillColor=none;" vertex="1" parent="1">
          <mxGeometry x="275" y="1640" width="300" height="30" as="geometry" />
        </mxCell>
        <mxCell id="wtg2LbB6esUIouC4Uuoj-49" value="How many domain event you want create?" style="text;html=1;align=center;verticalAlign=middle;resizable=0;points=[];autosize=1;strokeColor=none;fillColor=none;" vertex="1" parent="1">
          <mxGeometry x="275" y="1670" width="250" height="30" as="geometry" />
        </mxCell>
        <mxCell id="wtg2LbB6esUIouC4Uuoj-50" value="How many entities you want create?" style="text;html=1;align=center;verticalAlign=middle;resizable=0;points=[];autosize=1;strokeColor=none;fillColor=none;" vertex="1" parent="1">
          <mxGeometry x="275" y="1730" width="220" height="30" as="geometry" />
        </mxCell>
        <mxCell id="wtg2LbB6esUIouC4Uuoj-51" value="What is the name domain event?" style="text;html=1;align=center;verticalAlign=middle;resizable=0;points=[];autosize=1;strokeColor=none;fillColor=none;" vertex="1" parent="1">
          <mxGeometry x="310" y="1700" width="200" height="30" as="geometry" />
        </mxCell>
        <mxCell id="wtg2LbB6esUIouC4Uuoj-52" value="What is the name entity?" style="text;html=1;align=center;verticalAlign=middle;resizable=0;points=[];autosize=1;strokeColor=none;fillColor=none;" vertex="1" parent="1">
          <mxGeometry x="310" y="1760" width="160" height="30" as="geometry" />
        </mxCell>
        <mxCell id="wtg2LbB6esUIouC4Uuoj-53" value="How many vlaue object you want create?" style="text;html=1;align=center;verticalAlign=middle;resizable=0;points=[];autosize=1;strokeColor=none;fillColor=none;" vertex="1" parent="1">
          <mxGeometry x="280" y="1790" width="240" height="30" as="geometry" />
        </mxCell>
        <mxCell id="wtg2LbB6esUIouC4Uuoj-54" value="What is the name value object?" style="text;html=1;align=center;verticalAlign=middle;resizable=0;points=[];autosize=1;strokeColor=none;fillColor=none;" vertex="1" parent="1">
          <mxGeometry x="310" y="1820" width="190" height="30" as="geometry" />
        </mxCell>
        <mxCell id="wtg2LbB6esUIouC4Uuoj-55" value="Do you want create of repository to aggregate?" style="text;html=1;align=center;verticalAlign=middle;resizable=0;points=[];autosize=1;strokeColor=none;fillColor=none;" vertex="1" parent="1">
          <mxGeometry x="280" y="1850" width="270" height="30" as="geometry" />
        </mxCell>
        <mxCell id="wtg2LbB6esUIouC4Uuoj-56" value="How many command do you want create?" style="text;html=1;align=center;verticalAlign=middle;resizable=0;points=[];autosize=1;strokeColor=none;fillColor=none;" vertex="1" parent="1">
          <mxGeometry x="280" y="1880" width="250" height="30" as="geometry" />
        </mxCell>
        <mxCell id="wtg2LbB6esUIouC4Uuoj-57" value="What is the name of your use case to create?" style="text;html=1;align=center;verticalAlign=middle;resizable=0;points=[];autosize=1;strokeColor=none;fillColor=none;" vertex="1" parent="1">
          <mxGeometry x="310" y="1910" width="260" height="30" as="geometry" />
        </mxCell>
        <mxCell id="wtg2LbB6esUIouC4Uuoj-58" value="How many queries do you want create?" style="text;html=1;align=center;verticalAlign=middle;resizable=0;points=[];autosize=1;strokeColor=none;fillColor=none;" vertex="1" parent="1">
          <mxGeometry x="280" y="1940" width="230" height="30" as="geometry" />
        </mxCell>
        <mxCell id="wtg2LbB6esUIouC4Uuoj-59" value="What is the name of your use case to create?" style="text;html=1;align=center;verticalAlign=middle;resizable=0;points=[];autosize=1;strokeColor=none;fillColor=none;" vertex="1" parent="1">
          <mxGeometry x="310" y="1970" width="260" height="30" as="geometry" />
        </mxCell>
        <mxCell id="wtg2LbB6esUIouC4Uuoj-60" value="Do you want create the controller to aggregate?" style="text;html=1;align=center;verticalAlign=middle;resizable=0;points=[];autosize=1;strokeColor=none;fillColor=none;" vertex="1" parent="1">
          <mxGeometry x="280" y="2000" width="280" height="30" as="geometry" />
        </mxCell>
        <mxCell id="wtg2LbB6esUIouC4Uuoj-61" value="Do you want create the consumer to aggregate?" style="text;html=1;align=center;verticalAlign=middle;resizable=0;points=[];autosize=1;strokeColor=none;fillColor=none;" vertex="1" parent="1">
          <mxGeometry x="280" y="2120" width="280" height="30" as="geometry" />
        </mxCell>
        <mxCell id="wtg2LbB6esUIouC4Uuoj-62" value="Do you want create the service to aggregaate?" style="text;html=1;align=center;verticalAlign=middle;resizable=0;points=[];autosize=1;strokeColor=none;fillColor=none;" vertex="1" parent="1">
          <mxGeometry x="280" y="2030" width="270" height="30" as="geometry" />
        </mxCell>
        <mxCell id="wtg2LbB6esUIouC4Uuoj-63" value="What is the name of the consumer" style="text;html=1;align=center;verticalAlign=middle;resizable=0;points=[];autosize=1;strokeColor=none;fillColor=none;" vertex="1" parent="1">
          <mxGeometry x="335" y="2180" width="210" height="30" as="geometry" />
        </mxCell>
        <mxCell id="wtg2LbB6esUIouC4Uuoj-65" value="What is the name of the action to queue ?" style="text;html=1;align=center;verticalAlign=middle;resizable=0;points=[];autosize=1;strokeColor=none;fillColor=none;" vertex="1" parent="1">
          <mxGeometry x="335" y="2210" width="250" height="30" as="geometry" />
        </mxCell>
        <mxCell id="wtg2LbB6esUIouC4Uuoj-66" value="What is the name domain event ?" style="text;html=1;align=center;verticalAlign=middle;resizable=0;points=[];autosize=1;strokeColor=none;fillColor=none;" vertex="1" parent="1">
          <mxGeometry x="335" y="2240" width="200" height="30" as="geometry" />
        </mxCell>
        <mxCell id="wtg2LbB6esUIouC4Uuoj-67" value="domain event internal" style="rounded=0;whiteSpace=wrap;html=1;dashed=1;" vertex="1" parent="1">
          <mxGeometry x="450" y="787" width="120" height="40" as="geometry" />
        </mxCell>
        <mxCell id="wtg2LbB6esUIouC4Uuoj-68" value="CodeDesignPlus" style="text;html=1;align=center;verticalAlign=middle;resizable=0;points=[];autosize=1;strokeColor=none;fillColor=none;" vertex="1" parent="1">
          <mxGeometry x="770" y="1550" width="110" height="30" as="geometry" />
        </mxCell>
        <mxCell id="wtg2LbB6esUIouC4Uuoj-69" value="Organization" style="text;html=1;align=center;verticalAlign=middle;resizable=0;points=[];autosize=1;strokeColor=none;fillColor=none;" vertex="1" parent="1">
          <mxGeometry x="770" y="1580" width="90" height="30" as="geometry" />
        </mxCell>
        <mxCell id="wtg2LbB6esUIouC4Uuoj-70" value="Yes" style="text;html=1;align=center;verticalAlign=middle;resizable=0;points=[];autosize=1;strokeColor=none;fillColor=none;" vertex="1" parent="1">
          <mxGeometry x="770" y="1610" width="40" height="30" as="geometry" />
        </mxCell>
        <mxCell id="wtg2LbB6esUIouC4Uuoj-71" value="Org" style="text;html=1;align=center;verticalAlign=middle;resizable=0;points=[];autosize=1;strokeColor=none;fillColor=none;" vertex="1" parent="1">
          <mxGeometry x="770" y="1640" width="40" height="30" as="geometry" />
        </mxCell>
        <mxCell id="wtg2LbB6esUIouC4Uuoj-72" value="3" style="text;html=1;align=center;verticalAlign=middle;resizable=0;points=[];autosize=1;strokeColor=none;fillColor=none;" vertex="1" parent="1">
          <mxGeometry x="770" y="1670" width="30" height="30" as="geometry" />
        </mxCell>
        <mxCell id="wtg2LbB6esUIouC4Uuoj-73" value="OrgCreted" style="text;html=1;align=center;verticalAlign=middle;resizable=0;points=[];autosize=1;strokeColor=none;fillColor=none;flipV=1;flipH=1;" vertex="1" parent="1">
          <mxGeometry x="770" y="1700" width="80" height="30" as="geometry" />
        </mxCell>
        <mxCell id="wtg2LbB6esUIouC4Uuoj-74" value="OrgUpdated" style="text;html=1;align=center;verticalAlign=middle;resizable=0;points=[];autosize=1;strokeColor=none;fillColor=none;flipV=1;flipH=1;" vertex="1" parent="1">
          <mxGeometry x="860" y="1700" width="90" height="30" as="geometry" />
        </mxCell>
        <mxCell id="wtg2LbB6esUIouC4Uuoj-75" value="OrgDeleted" style="text;html=1;align=center;verticalAlign=middle;resizable=0;points=[];autosize=1;strokeColor=none;fillColor=none;flipV=1;flipH=1;" vertex="1" parent="1">
          <mxGeometry x="960" y="1700" width="80" height="30" as="geometry" />
        </mxCell>
        <mxCell id="wtg2LbB6esUIouC4Uuoj-77" value="1" style="text;html=1;align=center;verticalAlign=middle;resizable=0;points=[];autosize=1;strokeColor=none;fillColor=none;" vertex="1" parent="1">
          <mxGeometry x="770" y="1730" width="30" height="30" as="geometry" />
        </mxCell>
        <mxCell id="wtg2LbB6esUIouC4Uuoj-78" value="Stage" style="text;html=1;align=center;verticalAlign=middle;resizable=0;points=[];autosize=1;strokeColor=none;fillColor=none;" vertex="1" parent="1">
          <mxGeometry x="770" y="1760" width="50" height="30" as="geometry" />
        </mxCell>
        <mxCell id="wtg2LbB6esUIouC4Uuoj-79" value="4" style="text;html=1;align=center;verticalAlign=middle;resizable=0;points=[];autosize=1;strokeColor=none;fillColor=none;" vertex="1" parent="1">
          <mxGeometry x="770" y="1790" width="30" height="30" as="geometry" />
        </mxCell>
        <mxCell id="wtg2LbB6esUIouC4Uuoj-80" value="Name" style="text;html=1;align=center;verticalAlign=middle;resizable=0;points=[];autosize=1;strokeColor=none;fillColor=none;" vertex="1" parent="1">
          <mxGeometry x="770" y="1820" width="60" height="30" as="geometry" />
        </mxCell>
        <mxCell id="wtg2LbB6esUIouC4Uuoj-81" value="Description" style="text;html=1;align=center;verticalAlign=middle;resizable=0;points=[];autosize=1;strokeColor=none;fillColor=none;" vertex="1" parent="1">
          <mxGeometry x="842" y="1820" width="80" height="30" as="geometry" />
        </mxCell>
        <mxCell id="wtg2LbB6esUIouC4Uuoj-82" value="Stage" style="text;html=1;align=center;verticalAlign=middle;resizable=0;points=[];autosize=1;strokeColor=none;fillColor=none;" vertex="1" parent="1">
          <mxGeometry x="938" y="1820" width="50" height="30" as="geometry" />
        </mxCell>
        <mxCell id="wtg2LbB6esUIouC4Uuoj-83" value="State" style="text;html=1;align=center;verticalAlign=middle;resizable=0;points=[];autosize=1;strokeColor=none;fillColor=none;" vertex="1" parent="1">
          <mxGeometry x="1020" y="1820" width="50" height="30" as="geometry" />
        </mxCell>
        <mxCell id="wtg2LbB6esUIouC4Uuoj-84" value="Yes" style="text;html=1;align=center;verticalAlign=middle;resizable=0;points=[];autosize=1;strokeColor=none;fillColor=none;" vertex="1" parent="1">
          <mxGeometry x="770" y="1850" width="40" height="30" as="geometry" />
        </mxCell>
        <mxCell id="wtg2LbB6esUIouC4Uuoj-85" value="3" style="text;html=1;align=center;verticalAlign=middle;resizable=0;points=[];autosize=1;strokeColor=none;fillColor=none;" vertex="1" parent="1">
          <mxGeometry x="770" y="1880" width="30" height="30" as="geometry" />
        </mxCell>
        <mxCell id="wtg2LbB6esUIouC4Uuoj-86" value="CreateOrg" style="text;html=1;align=center;verticalAlign=middle;resizable=0;points=[];autosize=1;strokeColor=none;fillColor=none;" vertex="1" parent="1">
          <mxGeometry x="770" y="1910" width="80" height="30" as="geometry" />
        </mxCell>
        <mxCell id="wtg2LbB6esUIouC4Uuoj-87" value="UpdateOrg" style="text;html=1;align=center;verticalAlign=middle;resizable=0;points=[];autosize=1;strokeColor=none;fillColor=none;" vertex="1" parent="1">
          <mxGeometry x="870" y="1910" width="80" height="30" as="geometry" />
        </mxCell>
        <mxCell id="wtg2LbB6esUIouC4Uuoj-88" value="DeleteOrg" style="text;html=1;align=center;verticalAlign=middle;resizable=0;points=[];autosize=1;strokeColor=none;fillColor=none;" vertex="1" parent="1">
          <mxGeometry x="970" y="1910" width="80" height="30" as="geometry" />
        </mxCell>
        <mxCell id="wtg2LbB6esUIouC4Uuoj-89" value="2" style="text;html=1;align=center;verticalAlign=middle;resizable=0;points=[];autosize=1;strokeColor=none;fillColor=none;" vertex="1" parent="1">
          <mxGeometry x="770" y="1940" width="30" height="30" as="geometry" />
        </mxCell>
        <mxCell id="wtg2LbB6esUIouC4Uuoj-90" value="FindOrgById" style="text;html=1;align=center;verticalAlign=middle;resizable=0;points=[];autosize=1;strokeColor=none;fillColor=none;" vertex="1" parent="1">
          <mxGeometry x="770" y="1970" width="90" height="30" as="geometry" />
        </mxCell>
        <mxCell id="wtg2LbB6esUIouC4Uuoj-91" value="FindAllOrg" style="text;html=1;align=center;verticalAlign=middle;resizable=0;points=[];autosize=1;strokeColor=none;fillColor=none;" vertex="1" parent="1">
          <mxGeometry x="875" y="1970" width="80" height="30" as="geometry" />
        </mxCell>
        <mxCell id="wtg2LbB6esUIouC4Uuoj-92" value="Yes" style="text;html=1;align=center;verticalAlign=middle;resizable=0;points=[];autosize=1;strokeColor=none;fillColor=none;" vertex="1" parent="1">
          <mxGeometry x="770" y="2000" width="40" height="30" as="geometry" />
        </mxCell>
        <mxCell id="wtg2LbB6esUIouC4Uuoj-93" value="Yes" style="text;html=1;align=center;verticalAlign=middle;resizable=0;points=[];autosize=1;strokeColor=none;fillColor=none;" vertex="1" parent="1">
          <mxGeometry x="770" y="2030" width="40" height="30" as="geometry" />
        </mxCell>
        <mxCell id="wtg2LbB6esUIouC4Uuoj-94" value="ns" style="text;html=1;align=center;verticalAlign=middle;resizable=0;points=[];autosize=1;strokeColor=none;fillColor=none;" vertex="1" parent="1">
          <mxGeometry x="930" y="1578" width="40" height="30" as="geometry" />
        </mxCell>
        <mxCell id="wtg2LbB6esUIouC4Uuoj-95" style="edgeStyle=orthogonalEdgeStyle;rounded=0;orthogonalLoop=1;jettySize=auto;html=1;entryX=0.05;entryY=0.567;entryDx=0;entryDy=0;entryPerimeter=0;" edge="1" parent="1" source="wtg2LbB6esUIouC4Uuoj-69" target="wtg2LbB6esUIouC4Uuoj-94">
          <mxGeometry relative="1" as="geometry" />
        </mxCell>
        <mxCell id="wtg2LbB6esUIouC4Uuoj-96" value="" style="sketch=0;html=1;aspect=fixed;strokeColor=none;shadow=0;align=center;fillColor=#2D9C5E;verticalAlign=top;labelPosition=center;verticalLabelPosition=bottom;shape=mxgraph.gcp2.check" vertex="1" parent="1">
          <mxGeometry x="575" y="1645" width="25" height="20" as="geometry" />
        </mxCell>
        <mxCell id="wtg2LbB6esUIouC4Uuoj-97" value="" style="sketch=0;html=1;aspect=fixed;strokeColor=none;shadow=0;align=center;fillColor=#2D9C5E;verticalAlign=top;labelPosition=center;verticalLabelPosition=bottom;shape=mxgraph.gcp2.check" vertex="1" parent="1">
          <mxGeometry x="575" y="1700" width="25" height="20" as="geometry" />
        </mxCell>
        <mxCell id="wtg2LbB6esUIouC4Uuoj-98" value="nameAggregate" style="text;html=1;align=center;verticalAlign=middle;resizable=0;points=[];autosize=1;strokeColor=#6c8ebf;fillColor=#dae8fc;" vertex="1" parent="1">
          <mxGeometry x="105" y="1640" width="110" height="30" as="geometry" />
        </mxCell>
        <mxCell id="wtg2LbB6esUIouC4Uuoj-99" value="name" style="text;html=1;align=center;verticalAlign=middle;resizable=0;points=[];autosize=1;strokeColor=none;fillColor=none;" vertex="1" parent="1">
          <mxGeometry x="135" y="1700" width="50" height="30" as="geometry" />
        </mxCell>
        <mxCell id="wtg2LbB6esUIouC4Uuoj-100" value="entity or aggregate&amp;nbsp;" style="text;html=1;align=center;verticalAlign=middle;resizable=0;points=[];autosize=1;strokeColor=#6c8ebf;fillColor=#dae8fc;" vertex="1" parent="1">
          <mxGeometry x="-30" y="1700" width="130" height="30" as="geometry" />
        </mxCell>
        <mxCell id="wtg2LbB6esUIouC4Uuoj-101" value="" style="sketch=0;html=1;aspect=fixed;strokeColor=none;shadow=0;align=center;fillColor=#2D9C5E;verticalAlign=top;labelPosition=center;verticalLabelPosition=bottom;shape=mxgraph.gcp2.check" vertex="1" parent="1">
          <mxGeometry x="572.5" y="1760" width="25" height="20" as="geometry" />
        </mxCell>
        <mxCell id="wtg2LbB6esUIouC4Uuoj-102" value="name" style="text;html=1;align=center;verticalAlign=middle;resizable=0;points=[];autosize=1;strokeColor=none;fillColor=none;" vertex="1" parent="1">
          <mxGeometry x="135" y="1760" width="50" height="30" as="geometry" />
        </mxCell>
        <mxCell id="wtg2LbB6esUIouC4Uuoj-103" value="name" style="text;html=1;align=center;verticalAlign=middle;resizable=0;points=[];autosize=1;strokeColor=none;fillColor=none;" vertex="1" parent="1">
          <mxGeometry x="135" y="1820" width="50" height="30" as="geometry" />
        </mxCell>
        <mxCell id="wtg2LbB6esUIouC4Uuoj-104" value="nameAggregate" style="text;html=1;align=center;verticalAlign=middle;resizable=0;points=[];autosize=1;strokeColor=#6c8ebf;fillColor=#dae8fc;" vertex="1" parent="1">
          <mxGeometry x="105" y="1850" width="110" height="30" as="geometry" />
        </mxCell>
        <mxCell id="wtg2LbB6esUIouC4Uuoj-105" value="" style="sketch=0;html=1;aspect=fixed;strokeColor=none;shadow=0;align=center;fillColor=#2D9C5E;verticalAlign=top;labelPosition=center;verticalLabelPosition=bottom;shape=mxgraph.gcp2.check" vertex="1" parent="1">
          <mxGeometry x="572.5" y="1825" width="25" height="20" as="geometry" />
        </mxCell>
        <mxCell id="wtg2LbB6esUIouC4Uuoj-106" value="" style="sketch=0;html=1;aspect=fixed;strokeColor=none;shadow=0;align=center;fillColor=#2D9C5E;verticalAlign=top;labelPosition=center;verticalLabelPosition=bottom;shape=mxgraph.gcp2.check" vertex="1" parent="1">
          <mxGeometry x="572.5" y="1855" width="25" height="20" as="geometry" />
        </mxCell>
        <mxCell id="wtg2LbB6esUIouC4Uuoj-107" value="" style="sketch=0;html=1;aspect=fixed;strokeColor=none;shadow=0;align=center;fillColor=#2D9C5E;verticalAlign=top;labelPosition=center;verticalLabelPosition=bottom;shape=mxgraph.gcp2.check" vertex="1" parent="1">
          <mxGeometry x="572.5" y="1915" width="25" height="20" as="geometry" />
        </mxCell>
        <mxCell id="wtg2LbB6esUIouC4Uuoj-108" value="nameAggregate" style="text;html=1;align=center;verticalAlign=middle;resizable=0;points=[];autosize=1;strokeColor=#6c8ebf;fillColor=#dae8fc;" vertex="1" parent="1">
          <mxGeometry x="105" y="1910" width="110" height="30" as="geometry" />
        </mxCell>
        <mxCell id="wtg2LbB6esUIouC4Uuoj-109" value="useCase" style="text;html=1;align=center;verticalAlign=middle;resizable=0;points=[];autosize=1;strokeColor=none;fillColor=none;" vertex="1" parent="1">
          <mxGeometry x="20" y="1910" width="70" height="30" as="geometry" />
        </mxCell>
        <mxCell id="wtg2LbB6esUIouC4Uuoj-111" value="nameAggregate" style="text;html=1;align=center;verticalAlign=middle;resizable=0;points=[];autosize=1;strokeColor=#6c8ebf;fillColor=#dae8fc;" vertex="1" parent="1">
          <mxGeometry x="105" y="1970" width="110" height="30" as="geometry" />
        </mxCell>
        <mxCell id="wtg2LbB6esUIouC4Uuoj-112" value="useCase" style="text;html=1;align=center;verticalAlign=middle;resizable=0;points=[];autosize=1;strokeColor=none;fillColor=none;" vertex="1" parent="1">
          <mxGeometry x="20" y="1970" width="70" height="30" as="geometry" />
        </mxCell>
        <mxCell id="wtg2LbB6esUIouC4Uuoj-113" value="" style="sketch=0;html=1;aspect=fixed;strokeColor=none;shadow=0;align=center;fillColor=#2D9C5E;verticalAlign=top;labelPosition=center;verticalLabelPosition=bottom;shape=mxgraph.gcp2.check" vertex="1" parent="1">
          <mxGeometry x="572.5" y="1975" width="25" height="20" as="geometry" />
        </mxCell>
        <mxCell id="wtg2LbB6esUIouC4Uuoj-114" value="nameAggregate" style="text;html=1;align=center;verticalAlign=middle;resizable=0;points=[];autosize=1;strokeColor=#6c8ebf;fillColor=#dae8fc;" vertex="1" parent="1">
          <mxGeometry x="105" y="2000" width="110" height="30" as="geometry" />
        </mxCell>
        <mxCell id="wtg2LbB6esUIouC4Uuoj-115" value="nameAggregate" style="text;html=1;align=center;verticalAlign=middle;resizable=0;points=[];autosize=1;strokeColor=#6c8ebf;fillColor=#dae8fc;" vertex="1" parent="1">
          <mxGeometry x="105" y="2030" width="110" height="30" as="geometry" />
        </mxCell>
        <mxCell id="wtg2LbB6esUIouC4Uuoj-116" value="" style="sketch=0;html=1;aspect=fixed;strokeColor=none;shadow=0;align=center;fillColor=#2D9C5E;verticalAlign=top;labelPosition=center;verticalLabelPosition=bottom;shape=mxgraph.gcp2.check" vertex="1" parent="1">
          <mxGeometry x="572.5" y="2005" width="25" height="20" as="geometry" />
        </mxCell>
        <mxCell id="wtg2LbB6esUIouC4Uuoj-117" value="" style="sketch=0;html=1;aspect=fixed;strokeColor=none;shadow=0;align=center;fillColor=#2D9C5E;verticalAlign=top;labelPosition=center;verticalLabelPosition=bottom;shape=mxgraph.gcp2.check" vertex="1" parent="1">
          <mxGeometry x="572.5" y="2030" width="25" height="20" as="geometry" />
        </mxCell>
        <mxCell id="wtg2LbB6esUIouC4Uuoj-118" value="Select your aggregate?" style="text;html=1;align=center;verticalAlign=middle;resizable=0;points=[];autosize=1;strokeColor=none;fillColor=none;" vertex="1" parent="1">
          <mxGeometry x="335" y="2150" width="150" height="30" as="geometry" />
        </mxCell>
      </root>
    </mxGraphModel>
  </diagram>
</mxfile>
